<svg xmlns="http://www.w3.org/2000/svg" width="512" height="512" viewBox="0 0 512 512" version="1.1">
	<path d="M 351.855 97.116 C 346.550 97.644, 339.127 98.846, 335.360 99.788 C 329.606 101.226, 328.291 101.958, 327.146 104.363 C 325.110 108.637, 326.772 111.113, 335.699 117.112 C 349.301 126.252, 361.842 139.733, 367.870 151.694 C 373.941 163.741, 376.794 179.266, 373.447 182.044 C 370.280 184.672, 366.294 183.554, 360.269 178.347 C 341.228 161.891, 320.020 153.246, 291.814 150.445 C 285.537 149.821, 284.972 149.937, 282.564 152.345 C 280.178 154.731, 280 155.558, 280 164.246 C 280 181.607, 275.826 206.584, 269.931 224.500 C 266.073 236.224, 254.123 260.332, 249.483 265.750 C 241.937 274.563, 236.427 270.244, 230.669 251 C 224.944 231.868, 221.062 196.580, 221.015 163.250 C 221.002 154.128, 220.765 152.765, 218.865 150.865 C 216.879 148.879, 215.985 148.765, 206.115 149.239 C 185.610 150.224, 165.343 159.458, 137.098 180.685 C 128.159 187.403, 124.608 188.434, 121.655 185.171 C 120.745 184.165, 120 182.286, 120 180.994 C 120 177.647, 126.863 163.959, 133.535 154 C 144.761 137.243, 151.622 130.070, 172 113.788 C 177.966 109.020, 179.074 106.287, 176.580 102.482 C 174.771 99.720, 166.819 96.999, 160.568 97.002 C 152.739 97.006, 126.729 101.723, 101.843 107.651 L 87.186 111.143 77.861 119.626 C -31.401 219.028, -17.273 384.201, 107.629 467.669 C 140.607 489.707, 176.951 503.212, 220.572 509.639 C 237.200 512.089, 274.800 512.089, 291.428 509.639 C 352.155 500.692, 402.023 476.636, 441.707 437.146 C 479.126 399.909, 501.835 352.924, 506.956 302.144 C 513.719 235.075, 485.995 165.918, 433.500 118.912 C 421.836 108.467, 410.240 99.858, 405.577 98.180 C 400.528 96.362, 366.240 95.683, 351.855 97.116" stroke="none" fill="black" fill-rule="evenodd"/>
</svg>